<svg width="22" height="19" viewBox="0 0 22 19" fill="none" xmlns="http://www.w3.org/2000/svg">
<path d="M16.8929 11.0831H16.1071C15.9923 11.0831 15.8982 11.1202 15.8249 11.1946C15.751 11.2686 15.7142 11.3635 15.7142 11.479V15.4373C15.7142 15.9816 15.522 16.4475 15.1374 16.8351C14.7528 17.2227 14.2903 17.4163 13.75 17.4163H3.53564C2.99547 17.4163 2.53301 17.2227 2.14828 16.8351C1.76365 16.4475 1.57135 15.9817 1.57135 15.4373V5.14554C1.57135 4.60127 1.76361 4.13547 2.14828 3.74788C2.53301 3.36024 2.99547 3.16652 3.53564 3.16652H12.1784C12.2932 3.16652 12.3873 3.12931 12.4609 3.05518C12.5345 2.98096 12.5712 2.8862 12.5712 2.77065V1.97886C12.5712 1.86353 12.5345 1.7686 12.4609 1.69451C12.3873 1.6203 12.2932 1.58325 12.1784 1.58325H3.53564C2.56177 1.58325 1.72895 1.93168 1.03725 2.6285C0.345807 3.32527 0 4.16441 0 5.14567V15.4375C0 16.4187 0.345807 17.258 1.03729 17.9545C1.72899 18.6514 2.56182 19 3.53568 19H13.75C14.7239 19 15.5568 18.6514 16.2484 17.9545C16.9401 17.258 17.2859 16.4187 17.2859 15.4375V11.4793C17.2859 11.3636 17.2491 11.2688 17.1752 11.1946C17.1015 11.1202 17.0073 11.0831 16.8929 11.0831Z" fill="white"/>
<path d="M21.7666 0.235002C21.611 0.0782906 21.4267 0 21.214 0H14.9284C14.7156 0 14.5313 0.0782906 14.3759 0.235002C14.2204 0.391626 14.1425 0.577193 14.1425 0.791614C14.1425 1.00604 14.2204 1.19165 14.3759 1.34836L16.5366 3.52542L8.53223 11.5906C8.45027 11.6731 8.40942 11.768 8.40942 11.875C8.40942 11.9824 8.4504 12.0772 8.53223 12.1597L9.9318 13.5697C10.0136 13.6522 10.1078 13.6933 10.2142 13.6933C10.3206 13.6933 10.4148 13.6522 10.4966 13.5697L18.5009 5.5046L20.6617 7.68166C20.8171 7.83837 21.0013 7.91675 21.2142 7.91675C21.427 7.91675 21.6112 7.83837 21.7668 7.68166C21.9223 7.52499 22 7.33947 22 7.12505V0.791614C21.9999 0.577063 21.922 0.391626 21.7666 0.235002Z" fill="white"/>
</svg>
